<?xml version="1.0" encoding="utf-8"?>
<!-- Generator: Adobe Illustrator 18.0.0, SVG Export Plug-In . SVG Version: 6.00 Build 0)  -->
<!DOCTYPE svg PUBLIC "-//W3C//DTD SVG 1.1//EN" "http://www.w3.org/Graphics/SVG/1.1/DTD/svg11.dtd">
<svg version="1.1" id="Layer_1" xmlns="http://www.w3.org/2000/svg" xmlns:xlink="http://www.w3.org/1999/xlink" x="0px" y="0px"
	 width="142.36px" height="78.7px" viewBox="0 0 142.36 78.7" enable-background="new 0 0 142.36 78.7" xml:space="preserve">
<g>
	<polygon points="142.36,63.098 142.36,78.7 118.005,58.536 93.651,78.7 93.651,63.098 118.005,42.934 	"/>
	<path fill="#E60036" d="M0,24.248h12.559v8.487h0.222c1.174-2.647,3.214-4.98,6.117-7.001c2.899-2.019,6.334-3.029,10.304-3.029
		c3.451,0,6.405,0.606,8.87,1.819c2.462,1.21,4.481,2.809,6.061,4.793c1.58,1.984,2.737,4.261,3.47,6.833
		c0.737,2.573,1.106,5.216,1.106,7.933v33.061H35.481V47.831c0-1.544-0.107-3.158-0.331-4.849c-0.219-1.688-0.7-3.214-1.432-4.573
		c-0.734-1.36-1.745-2.48-3.03-3.362c-1.286-0.882-2.995-1.323-5.122-1.323c-2.134,0-3.968,0.425-5.51,1.268
		c-1.546,0.845-2.811,1.928-3.805,3.251c-0.989,1.322-1.747,2.849-2.258,4.573c-0.518,1.728-0.772,3.471-0.772,5.235v29.093H0
		V24.248z"/>
	<polygon fill="#E60036" points="142.36,38.372 142.36,22.769 118.005,42.934 93.651,22.769 93.651,38.372 118.005,58.536 	"/>
	<polygon fill="#00A6EB" points="142.36,63.098 142.36,78.7 118.005,58.536 93.651,78.7 93.651,63.098 118.005,42.934 	"/>
	<rect x="64.568" y="24.248" fill="#E60036" width="13.224" height="52.895"/>
	<path fill="#E60036" d="M79.339,8.159c0,4.507-3.652,8.16-8.158,8.16c-4.507,0-8.159-3.652-8.159-8.16
		C63.021,3.654,66.674,0,71.181,0C75.687,0,79.339,3.654,79.339,8.159"/>
</g>
</svg>
